<?xml version="1.0" encoding="UTF-8"?>
<svg width="16px" height="16px" viewBox="0 0 16 16" version="1.1" xmlns="http://www.w3.org/2000/svg" xmlns:xlink="http://www.w3.org/1999/xlink">
    <!-- Generator: sketchtool 43.1 (39012) - http://www.bohemiancoding.com/sketch -->
    <title>icon/icon-font/calendar-fill</title>
    <desc>Created with sketchtool.</desc>
    <defs></defs>
    <g id="Page-1" stroke="none" stroke-width="1" fill="none" fill-rule="evenodd">
        <g id="icons" transform="translate(-246.000000, -400.000000)" fill="#282828">
            <g id="Fill" transform="translate(182.000000, 304.000000)">
                <path d="M78.382625,109.960733 C78.382625,110.323329 78.085625,110.617328 77.71925,110.617328 L66.25275,110.617328 C65.886375,110.617328 65.5895,110.323329 65.5895,109.960733 L65.5895,103.755733 C65.5895,103.392884 65.886375,103.098758 66.25275,103.098758 L77.71925,103.098758 C78.085625,103.098758 78.3825,103.392884 78.3825,103.755733 L78.382625,109.960733 Z M78.575875,97.6040145 C79.357625,97.6274282 80,98.2678235 80,99.0550288 L80,110.539367 C80,111.339988 79.34225,112 78.533375,112 L65.466625,112 C64.6565,112 64,111.34138 64,110.539367 L64,99.0550288 C64,98.2678235 64.642375,97.6274282 65.42425,97.6040145 L65.42425,99.5638014 C65.42425,100.449471 66.15,101.163144 67.044375,101.163144 L68.06675,101.163144 C68.961125,101.163144 69.6965,100.449471 69.6965,99.5638014 L69.6965,97.5971802 L74.3035,97.5971802 L74.3035,99.5638014 C74.3035,100.449471 75.038875,101.163144 75.933375,101.163144 L76.955625,101.163144 C77.85,101.163144 78.575875,100.449471 78.575875,99.5638014 L78.575875,97.6040145 Z M69.7802125,104.737651 C69.7802125,104.534649 69.6139625,104.370373 69.4088375,104.370373 L68.1128375,104.370373 C67.9078375,104.370373 67.7415875,104.534649 67.7415875,104.737651 L67.7415875,106.020593 C67.7415875,106.223723 67.9078375,106.388251 68.1128375,106.388251 L69.4088375,106.388251 C69.6139625,106.388251 69.7802125,106.223723 69.7802125,106.020593 L69.7802125,104.737651 Z M73.019225,104.737651 C73.019225,104.534649 72.852975,104.370373 72.648225,104.370373 L71.351975,104.370373 C71.146975,104.370373 70.980725,104.534649 70.980725,104.737651 L70.980725,106.020593 C70.980725,106.223723 71.146975,106.388251 71.351975,106.388251 L72.648225,106.388251 C72.852975,106.388251 73.019225,106.223723 73.019225,106.020593 L73.019225,104.737651 Z M76.25835,104.737651 C76.25835,104.534649 76.0921,104.370373 75.8871,104.370373 L74.5911,104.370373 C74.385975,104.370373 74.219725,104.534649 74.219725,104.737651 L74.219725,106.020593 C74.219725,106.223723 74.385975,106.388251 74.5911,106.388251 L75.8871,106.388251 C76.0921,106.388251 76.25835,106.223723 76.25835,106.020593 L76.25835,104.737651 Z M69.7802125,107.944678 C69.7802125,107.741422 69.6139625,107.577146 69.4088375,107.577146 L68.1128375,107.577146 C67.9078375,107.577146 67.7415875,107.741422 67.7415875,107.944678 L67.7415875,109.227367 C67.7415875,109.430369 67.9078375,109.594898 68.1128375,109.594898 L69.4088375,109.594898 C69.6139625,109.594898 69.7802125,109.430369 69.7802125,109.227367 L69.7802125,107.944678 Z M73.019225,107.944678 C73.019225,107.741422 72.852975,107.577146 72.648225,107.577146 L71.351975,107.577146 C71.146975,107.577146 70.980725,107.741422 70.980725,107.944678 L70.980725,109.227367 C70.980725,109.430369 71.146975,109.594898 71.351975,109.594898 L72.648225,109.594898 C72.852975,109.594898 73.019225,109.430369 73.019225,109.227367 L73.019225,107.944678 Z M76.25835,107.944678 C76.25835,107.741422 76.0921,107.577146 75.88735,107.577146 L74.5911,107.577146 C74.385975,107.577146 74.219725,107.741422 74.219725,107.944678 L74.219725,109.227367 C74.219725,109.430369 74.385975,109.594898 74.5911,109.594898 L75.88735,109.594898 C76.0921,109.594898 76.25835,109.430369 76.25835,109.227367 L76.25835,107.944678 Z M68.4444444,99.3363418 C68.4444444,99.7969945 68.0464753,100.170427 67.5555556,100.170427 C67.0646358,100.170427 66.6666667,99.7969945 66.6666667,99.3363418 L66.6666667,96.8340855 C66.6666667,96.3734328 67.0646358,96 67.5555556,96 C68.0464753,96 68.4444444,96.3734328 68.4444444,96.8340855 L68.4444444,99.3363418 Z M77.3333333,99.3363418 C77.3333333,99.7969945 76.9353642,100.170427 76.4444444,100.170427 C75.9535247,100.170427 75.5555556,99.7969945 75.5555556,99.3363418 L75.5555556,96.8340855 C75.5555556,96.3734328 75.9535247,96 76.4444444,96 C76.9353642,96 77.3333333,96.3734328 77.3333333,96.8340855 L77.3333333,99.3363418 Z" id="icon/icon-font/calendar-fill"></path>
            </g>
        </g>
    </g>
</svg>