<?xml version="1.0" encoding="UTF-8"?>
<svg width="16px" height="14px" viewBox="0 0 16 14" version="1.1" xmlns="http://www.w3.org/2000/svg" xmlns:xlink="http://www.w3.org/1999/xlink">
    <!-- Generator: sketchtool 43.1 (39012) - http://www.bohemiancoding.com/sketch -->
    <title>icon/icon-font/card-outline</title>
    <desc>Created with sketchtool.</desc>
    <defs></defs>
    <g id="Page-1" stroke="none" stroke-width="1" fill="none" fill-rule="evenodd">
        <g id="icons" transform="translate(-798.000000, -497.000000)" fill="#282828">
            <path d="M812.4,497.6 L799.6,497.6 C798.72,497.6 798,498.32 798,499.2 L798,508.8 C798,509.68 798.72,510.4 799.6,510.4 L812.4,510.4 C813.28,510.4 814,509.68 814,508.8 L814,499.2 C814,498.32 813.28,497.6 812.4,497.6 L812.4,497.6 Z M812.4,508.8 L799.6,508.8 L799.6,504 L812.4,504 L812.4,508.8 L812.4,508.8 Z M812.4,500.8 L799.6,500.8 L799.6,499.2 L812.4,499.2 L812.4,500.8 L812.4,500.8 Z" id="icon/icon-font/card-outline"></path>
        </g>
    </g>
</svg>