<?xml version="1.0" encoding="UTF-8"?>
<svg width="16px" height="16px" viewBox="0 0 16 16" version="1.1" xmlns="http://www.w3.org/2000/svg" xmlns:xlink="http://www.w3.org/1999/xlink">
    <!-- Generator: sketchtool 43.1 (39012) - http://www.bohemiancoding.com/sketch -->
    <title>icon/icon-font/close-fill</title>
    <desc>Created with sketchtool.</desc>
    <defs></defs>
    <g id="Page-1" stroke="none" stroke-width="1" fill="none" fill-rule="evenodd">
        <g id="icons" transform="translate(-214.000000, -400.000000)" fill="#282828">
            <g id="Fill" transform="translate(182.000000, 304.000000)">
                <path d="M40.8796646,103.995781 L43.4912631,101.384183 C43.7551308,101.120315 43.7711739,100.708544 43.5270962,100.464466 C43.2830185,100.220388 42.8712474,100.236431 42.6073796,100.500299 L39.9957811,103.111898 L37.3782163,100.494333 C37.1143486,100.230465 36.7025774,100.214422 36.4584997,100.4585 C36.214422,100.702577 36.2304651,101.114349 36.4943328,101.378216 L39.1118977,103.995781 L36.4918615,106.615817 C36.2279937,106.879685 36.2119507,107.291456 36.4560284,107.535534 C36.7001061,107.779612 37.1118772,107.763569 37.375745,107.499701 L39.9957811,104.879665 L42.6217837,107.505667 C42.8856514,107.769535 43.2974226,107.785578 43.5415003,107.5415 C43.785578,107.297423 43.7695349,106.885651 43.5056672,106.621784 L40.8796646,103.995781 Z M40,112 C35.581722,112 32,108.418278 32,104 C32,99.581722 35.581722,96 40,96 C44.418278,96 48,99.581722 48,104 C48,108.418278 44.418278,112 40,112 Z" id="icon/icon-font/close-fill"></path>
            </g>
        </g>
    </g>
</svg>