<?xml version="1.0" encoding="UTF-8"?>
<svg width="16px" height="16px" viewBox="0 0 16 16" version="1.1" xmlns="http://www.w3.org/2000/svg" xmlns:xlink="http://www.w3.org/1999/xlink">
    <!-- Generator: sketchtool 43.1 (39012) - http://www.bohemiancoding.com/sketch -->
    <title>icon/icon-font/close-outline</title>
    <desc>Created with sketchtool.</desc>
    <defs></defs>
    <g id="Page-1" stroke="none" stroke-width="1" fill="none" fill-rule="evenodd">
        <g id="icons" transform="translate(-766.000000, -400.000000)" fill-rule="nonzero" fill="#282828">
            <path d="M773.993261,406.105791 L768.350525,400.463056 C767.782237,399.894767 766.895552,399.860073 766.37006,400.385566 C765.844568,400.911058 765.879261,401.797742 766.44755,402.366031 L772.090285,408.008767 L766.454744,413.644308 C765.886644,414.212408 765.852246,415.099081 766.377913,415.624748 C766.90358,416.150415 767.790253,416.116016 768.358353,415.547916 L773.993894,409.912375 L779.618463,415.536944 C780.186752,416.105233 781.073436,416.139927 781.598929,415.614434 C782.124421,415.088942 782.089727,414.202258 781.521439,413.633969 L775.896869,408.0094 L781.550577,402.355692 C782.118676,401.787592 782.153075,400.900919 781.627408,400.375252 C781.101741,399.849585 780.215068,399.883984 779.646968,400.452084 L773.993261,406.105791 Z" id="icon/icon-font/close-outline"></path>
        </g>
    </g>
</svg>