<?xml version="1.0" encoding="UTF-8"?>
<svg width="14px" height="16px" viewBox="0 0 14 16" version="1.1" xmlns="http://www.w3.org/2000/svg" xmlns:xlink="http://www.w3.org/1999/xlink">
    <!-- Generator: sketchtool 43.1 (39012) - http://www.bohemiancoding.com/sketch -->
    <title>icon/icon-font/download-fill</title>
    <desc>Created with sketchtool.</desc>
    <defs></defs>
    <g id="Page-1" stroke="none" stroke-width="1" fill="none" fill-rule="evenodd">
        <g id="icons" transform="translate(-183.000000, -432.000000)" fill="#282828">
            <g id="Fill" transform="translate(182.000000, 304.000000)">
                <path d="M10.8235294,133.647059 L10.8235294,129.009581 C10.8235294,128.452005 10.3804142,128 9.81394846,128 L6.18605154,128 C5.62847538,128 5.17647059,128.443115 5.17647059,129.009581 L5.17647059,133.647059 L2.42063679,133.647059 C1.86345213,133.647059 1.72952899,133.964823 2.11682129,134.352115 L7.29494342,139.530238 C7.68433542,139.91963 8.31776428,139.91753 8.70505658,139.530238 L13.8831787,134.352115 C14.2725707,133.962723 14.1415903,133.647059 13.5793632,133.647059 L10.8235294,133.647059 Z M1.41176471,143.058824 C1.41176471,143.578621 1.83524589,144 2.35938398,144 L13.640616,144 C14.1639717,144 14.5882353,143.582245 14.5882353,143.058824 L14.5882353,143.058824 C14.5882353,142.539026 14.1647541,142.117647 13.640616,142.117647 L2.35938398,142.117647 C1.8360283,142.117647 1.41176471,142.535402 1.41176471,143.058824 L1.41176471,143.058824 Z" id="icon/icon-font/download-fill"></path>
            </g>
        </g>
    </g>
</svg>