<?xml version="1.0" encoding="UTF-8"?>
<svg width="16px" height="15px" viewBox="0 0 16 15" version="1.1" xmlns="http://www.w3.org/2000/svg" xmlns:xlink="http://www.w3.org/1999/xlink">
    <!-- Generator: sketchtool 43.1 (39012) - http://www.bohemiancoding.com/sketch -->
    <title>icon/icon-font/error-fill</title>
    <desc>Created with sketchtool.</desc>
    <defs></defs>
    <g id="Page-1" stroke="none" stroke-width="1" fill="none" fill-rule="evenodd">
        <g id="icons" transform="translate(-246.000000, -465.000000)" fill="#282828">
            <g id="Fill" transform="translate(182.000000, 304.000000)">
                <path d="M78.5903683,175.028694 C79.6982909,175.028694 80.1463205,174.251216 79.593404,173.296178 L73.0022591,161.911473 C72.4482978,160.954631 71.5491043,160.956436 70.9961878,161.911473 L64.4050429,173.296178 C63.8510816,174.25302 64.3022454,175.028694 65.4080785,175.028694 L78.5903683,175.028694 Z M71.9992234,172.683999 C71.5675769,172.683999 71.2176583,172.33709 71.2176583,171.902434 L71.2176583,171.902434 C71.2176583,171.470787 71.5645676,171.120869 71.9992234,171.120869 L71.9992234,171.120869 C72.4308699,171.120869 72.7807885,171.467778 72.7807885,171.902434 L72.7807885,171.902434 C72.7807885,172.33408 72.4338793,172.683999 71.9992234,172.683999 L71.9992234,172.683999 Z M71.9992234,169.557739 C71.5675769,169.557739 71.2176583,169.205965 71.2176583,168.769308 L71.2176583,166.047561 C71.2176583,165.612123 71.5645676,165.25913 71.9992234,165.25913 L71.9992234,165.25913 C72.4308699,165.25913 72.7807885,165.610904 72.7807885,166.047561 L72.7807885,168.769308 C72.7807885,169.204746 72.4338793,169.557739 71.9992234,169.557739 L71.9992234,169.557739 Z" id="icon/icon-font/error-fill"></path>
            </g>
        </g>
    </g>
</svg>