<?xml version="1.0" encoding="UTF-8"?>
<svg width="16px" height="16px" viewBox="0 0 16 16" version="1.1" xmlns="http://www.w3.org/2000/svg" xmlns:xlink="http://www.w3.org/1999/xlink">
    <!-- Generator: sketchtool 43.1 (39012) - http://www.bohemiancoding.com/sketch -->
    <title>icon/icon-font/fordward-outline</title>
    <desc>Created with sketchtool.</desc>
    <defs></defs>
    <g id="Page-1" stroke="none" stroke-width="1" fill="none" fill-rule="evenodd">
        <g id="icons" transform="translate(-734.000000, -368.000000)" fill="#282828">
            <path d="M742.709947,368.709947 C742.317854,368.317854 741.689295,368.310705 741.291797,368.708203 L741.308203,368.691797 C740.917073,369.082927 740.917125,369.717125 741.309244,370.109244 L746.2,375 L734.998377,375 C734.446989,375 734,375.443865 734,376 L734,376 C734,376.552285 734.448673,377 734.998377,377 L746.2,377 L741.309244,381.890756 C740.917539,382.282461 740.910705,382.910705 741.308203,383.308203 L741.291797,383.291797 C741.682927,383.682927 742.323518,383.676482 742.709947,383.290053 L749.290053,376.709947 C749.682146,376.317854 749.676482,375.676482 749.290053,375.290053 L742.709947,368.709947 Z" id="icon/icon-font/fordward-outline"></path>
        </g>
    </g>
</svg>