<?xml version="1.0" encoding="UTF-8"?>
<svg width="16px" height="16px" viewBox="0 0 16 16" version="1.1" xmlns="http://www.w3.org/2000/svg" xmlns:xlink="http://www.w3.org/1999/xlink">
    <!-- Generator: sketchtool 43.1 (39012) - http://www.bohemiancoding.com/sketch -->
    <title>icon/icon-font/genre-outline</title>
    <desc>Created with sketchtool.</desc>
    <defs></defs>
    <g id="Page-1" stroke="none" stroke-width="1" fill="none" fill-rule="evenodd">
        <g id="icons" transform="translate(-830.000000, -304.000000)" fill="#282828">
            <path d="M839.38687,314.138031 C839.142574,314.138031 838.90386,314.113357 838.673211,314.067093 C839.564168,313.160067 840.114053,311.92068 840.114053,310.555824 C840.114053,309.190721 839.564168,307.951457 838.673211,307.044432 C838.90386,306.998044 839.142449,306.973617 839.38687,306.973617 C841.373253,306.973617 842.989283,308.580527 842.989283,310.555824 C842.989283,312.530998 841.373377,314.138031 839.38687,314.138031 M831.454489,310.555824 C831.454489,308.580527 833.070643,306.973617 835.05715,306.973617 C835.301323,306.973617 835.539912,306.998044 835.770685,307.044432 C834.879852,307.951457 834.32972,309.190721 834.32972,310.555824 C834.32972,311.92068 834.879852,313.160191 835.770685,314.067093 C835.539912,314.113357 835.301323,314.138031 835.05715,314.138031 C833.070643,314.138031 831.454489,312.530998 831.454489,310.555824 M838.659564,310.555824 C838.659564,311.723656 838.094418,312.762565 837.221948,313.416926 C836.349478,312.762565 835.784333,311.723656 835.784333,310.555824 C835.784333,309.387869 836.349478,308.348959 837.221948,307.694598 C838.094418,308.348959 838.659564,309.387869 838.659564,310.555824 M845.996402,304.651894 C845.989702,304.606 845.988337,304.594032 845.98598,304.582065 C845.974069,304.533951 845.971712,304.523588 845.968734,304.513471 C845.952233,304.466837 845.949007,304.456597 845.944788,304.446727 C845.924068,304.402807 845.919602,304.392567 845.914267,304.382698 C845.889204,304.340751 845.883869,304.331252 845.87779,304.322122 C845.845655,304.278819 845.841065,304.271787 845.835605,304.265248 C845.80496,304.228113 845.770716,304.19394 845.733246,304.163467 C845.701484,304.139533 845.689077,304.130157 845.67605,304.121521 C845.637712,304.098327 845.626669,304.091295 845.615006,304.085126 C845.574311,304.065633 845.562648,304.059958 845.550489,304.0549 C845.509422,304.039849 845.496518,304.035037 845.483243,304.030966 C845.441803,304.020356 845.428155,304.016655 845.414259,304.013818 C845.370462,304.007279 845.35731,304.004811 845.34391,304.003578 C845.327409,304.001974 845.310783,304.001604 845.294282,304.00111 C845.287086,304.000864 842.976628,304 842.976628,304 C842.574885,304 842.249321,304.323726 842.249321,304.723202 C842.249321,305.122555 842.574885,305.446281 842.976628,305.446281 L843.517083,305.446281 L842.421409,306.535772 C841.575614,305.902878 840.524605,305.527213 839.38687,305.527213 C838.612665,305.527213 837.878782,305.701413 837.222072,306.012061 C836.565486,305.701413 835.831356,305.527213 835.05715,305.527213 C832.268646,305.527213 830,307.783056 830,310.555824 C830,313.08296 831.884645,315.180271 834.32972,315.532126 L834.32972,316.93916 L833.433428,316.93916 C833.031685,316.93916 832.705997,317.262886 832.705997,317.662238 C832.705997,318.061715 833.031685,318.385564 833.433428,318.385564 L834.32972,318.385564 L834.32972,319.276798 C834.32972,319.676151 834.655283,320 835.057026,320 C835.458645,320 835.784333,319.676151 835.784333,319.276798 L835.784333,318.385564 L836.680625,318.385564 C837.082368,318.385564 837.407931,318.061715 837.407931,317.662238 C837.407931,317.262886 837.082368,316.93916 836.680625,316.93916 L835.784333,316.93916 L835.784333,315.532126 C836.291537,315.45909 836.774671,315.311168 837.221948,315.099587 C837.878658,315.410235 838.612665,315.584312 839.38687,315.584312 C842.175375,315.584312 844.444021,313.328469 844.444021,310.555701 C844.444021,309.43475 844.073047,308.398431 843.446983,307.561234 L844.545511,306.469029 L844.545511,307.00631 C844.545511,307.405786 844.871074,307.729636 845.272693,307.729636 C845.674437,307.729636 846,307.405786 846,307.00631 L846,304.723202 C845.999752,304.697171 845.998635,304.674471 845.996402,304.651894 Z" id="icon/icon-font/genre-outline"></path>
        </g>
    </g>
</svg>