<?xml version="1.0" encoding="UTF-8"?>
<svg width="16px" height="16px" viewBox="0 0 16 16" version="1.1" xmlns="http://www.w3.org/2000/svg" xmlns:xlink="http://www.w3.org/1999/xlink">
    <!-- Generator: sketchtool 43.1 (39012) - http://www.bohemiancoding.com/sketch -->
    <title>icon/icon-font/help-fill</title>
    <desc>Created with sketchtool.</desc>
    <defs></defs>
    <g id="Page-1" stroke="none" stroke-width="1" fill="none" fill-rule="evenodd">
        <g id="icons" transform="translate(-182.000000, -464.000000)" fill="#282828">
            <g id="Fill" transform="translate(182.000000, 304.000000)">
                <path d="M8,160 C3.6,160 0,163.6 0,168 C0,172.4 3.6,176 8,176 C12.4,176 16,172.4 16,168 C16,163.6 12.4,160 8,160 L8,160 Z M8.8,173.6 C8.3581722,173.6 7.63745117,173.6 7.2,173.6 L8,173.6 C7.5581722,173.6 7.2,173.244908 7.2,172.8 L7.2,172.8 C7.2,172.358172 7.55509186,172 8,172 L8,172 C8.4418278,172 8.8,172.355092 8.8,172.8 L8.8,172.8 C8.8,173.241828 8.43745117,173.6 8,173.6 L8.8,173.6 Z M9.76,168.16 C9.12,168.72 8.8,169.2 8.8,170.4 L7.2,170.4 L7.2,170 C7.2,169.12 7.52,168.32 8.16,167.76 L9.12,166.72 C9.44,166.48 9.6,166.08 9.6,165.6 C9.6,164.72 8.88,164 8,164 C7.12,164 6.4,164.72 6.4,165.6 L4.8,165.6 C4.8,163.84 6.24,162.4 8,162.4 C9.76,162.4 11.2,163.84 11.2,165.6 C11.2,166.32 10.88,166.96 10.48,167.44 L9.76,168.16 Z" id="icon/icon-font/help-fill"></path>
            </g>
        </g>
    </g>
</svg>