<?xml version="1.0" encoding="UTF-8"?>
<svg width="12px" height="16px" viewBox="0 0 12 16" version="1.1" xmlns="http://www.w3.org/2000/svg" xmlns:xlink="http://www.w3.org/1999/xlink">
    <!-- Generator: sketchtool 43.1 (39012) - http://www.bohemiancoding.com/sketch -->
    <title>icon/icon-font/location-fill</title>
    <desc>Created with sketchtool.</desc>
    <defs></defs>
    <g id="Page-1" stroke="none" stroke-width="1" fill="none" fill-rule="evenodd">
        <g id="icons" transform="translate(-216.000000, -336.000000)" fill="#282828">
            <g id="Fill" transform="translate(182.000000, 304.000000)">
                <path d="M39.6,32 C36.48,32 34,34.48 34,37.6 C34,41.76 39.6,48 39.6,48 C39.6,48 45.2,41.76 45.2,37.6 C45.2,34.48 42.72,32 39.6,32 L39.6,32 Z M39.6,39.6 C38.48,39.6 37.6,38.72 37.6,37.6 C37.6,36.48 38.48,35.6 39.6,35.6 C40.72,35.6 41.6,36.48 41.6,37.6 C41.6,38.72 40.72,39.6 39.6,39.6 L39.6,39.6 Z" id="icon/icon-font/location-fill"></path>
            </g>
        </g>
    </g>
</svg>