<?xml version="1.0" encoding="UTF-8"?>
<svg width="12px" height="16px" viewBox="0 0 12 16" version="1.1" xmlns="http://www.w3.org/2000/svg" xmlns:xlink="http://www.w3.org/1999/xlink">
    <!-- Generator: sketchtool 43.1 (39012) - http://www.bohemiancoding.com/sketch -->
    <title>icon/icon-font/location-outline</title>
    <desc>Created with sketchtool.</desc>
    <defs></defs>
    <g id="Page-1" stroke="none" stroke-width="1" fill="none" fill-rule="evenodd">
        <g id="icons" transform="translate(-768.000000, -336.000000)" fill-rule="nonzero" fill="#282828">
            <path d="M774,336 C777.176509,336 779.70897,338.53246 779.70897,341.70897 C779.70897,342.692789 779.41396,343.788538 778.876289,344.986776 C778.437635,345.964349 777.846246,346.989423 777.139577,348.039331 C776.594634,348.84896 776.012263,349.627674 775.429787,350.348835 C775.225703,350.601511 775.035895,350.82928 774.865055,351.028709 C774.761269,351.149864 774.685938,351.235669 774.643766,351.282661 L774,352 L773.356234,351.282661 C773.314062,351.235669 773.238731,351.149864 773.134945,351.028709 C772.964105,350.82928 772.774297,350.601511 772.570213,350.348835 C771.987737,349.627674 771.405366,348.84896 770.860423,348.039331 C770.153754,346.989423 769.562365,345.964349 769.123711,344.986776 C768.58604,343.788538 768.29103,342.692789 768.29103,341.70897 C768.29103,338.53246 770.823491,336 774,336 Z M774.083955,349.261818 C774.636786,348.577361 775.189721,347.838008 775.704398,347.073345 C776.360096,346.099165 776.904013,345.156375 777.297917,344.278532 C777.744178,343.284007 777.978979,342.411891 777.978979,341.70897 C777.978979,339.487908 776.221062,337.729991 774,337.729991 C771.778938,337.729991 770.021021,339.487908 770.021021,341.70897 C770.021021,342.411891 770.255822,343.284007 770.702083,344.278532 C771.095987,345.156375 771.639904,346.099165 772.295602,347.073345 C772.810279,347.838008 773.363214,348.577361 773.916045,349.261818 C773.944337,349.296847 773.972327,349.331355 774,349.365331 C774.027673,349.331355 774.055663,349.296847 774.083955,349.261818 Z M774,342.573965 C774.491071,342.573965 774.864995,342.200041 774.864995,341.70897 C774.864995,341.217899 774.491071,340.843974 774,340.843974 C773.508929,340.843974 773.135005,341.217899 773.135005,341.70897 C773.135005,342.200041 773.508929,342.573965 774,342.573965 Z M774,344.303956 C772.553481,344.303956 771.405014,343.155488 771.405014,341.70897 C771.405014,340.262451 772.553481,339.113983 774,339.113983 C775.446519,339.113983 776.594986,340.262451 776.594986,341.70897 C776.594986,343.155488 775.446519,344.303956 774,344.303956 Z" id="icon/icon-font/location-outline"></path>
        </g>
    </g>
</svg>