<?xml version="1.0" encoding="UTF-8"?>
<svg width="14px" height="16px" viewBox="0 0 14 16" version="1.1" xmlns="http://www.w3.org/2000/svg" xmlns:xlink="http://www.w3.org/1999/xlink">
    <!-- Generator: sketchtool 43.1 (39012) - http://www.bohemiancoding.com/sketch -->
    <title>icon/icon-font/lock-fill</title>
    <desc>Created with sketchtool.</desc>
    <defs></defs>
    <g id="Page-1" stroke="none" stroke-width="1" fill="none" fill-rule="evenodd">
        <g id="icons" transform="translate(-247.000000, -496.000000)" fill="#282828">
            <g id="Fill" transform="translate(182.000000, 304.000000)">
                <path d="M76.5714286,197.333333 L75.8095238,197.333333 L75.8095238,195.809524 C75.8095238,193.67619 74.1333333,192 72,192 C69.8666667,192 68.1904762,193.67619 68.1904762,195.809524 L68.1904762,197.333333 L67.4285714,197.333333 C66.5904762,197.333333 65.9047619,198.019048 65.9047619,198.857143 L65.9047619,206.47619 C65.9047619,207.314286 66.5904762,208 67.4285714,208 L76.5714286,208 C77.4095238,208 78.0952381,207.314286 78.0952381,206.47619 L78.0952381,198.857143 C78.0952381,198.019048 77.4095238,197.333333 76.5714286,197.333333 L76.5714286,197.333333 Z M72,204.190476 C71.1619048,204.190476 70.4761905,203.504762 70.4761905,202.666667 C70.4761905,201.828571 71.1619048,201.142857 72,201.142857 C72.8380952,201.142857 73.5238095,201.828571 73.5238095,202.666667 C73.5238095,203.504762 72.8380952,204.190476 72,204.190476 L72,204.190476 Z M74.3619048,197.333333 L69.6380952,197.333333 L69.6380952,195.809524 C69.6380952,194.514286 70.7047619,193.447619 72,193.447619 C73.2952381,193.447619 74.3619048,194.514286 74.3619048,195.809524 L74.3619048,197.333333 L74.3619048,197.333333 Z" id="icon/icon-font/lock-fill"></path>
            </g>
        </g>
    </g>
</svg>