<?xml version="1.0" encoding="UTF-8"?>
<svg width="13px" height="16px" viewBox="0 0 13 16" version="1.1" xmlns="http://www.w3.org/2000/svg" xmlns:xlink="http://www.w3.org/1999/xlink">
    <!-- Generator: sketchtool 43.1 (39012) - http://www.bohemiancoding.com/sketch -->
    <title>icon/icon-font/lock-outline</title>
    <desc>Created with sketchtool.</desc>
    <defs></defs>
    <g id="Page-1" stroke="none" stroke-width="1" fill="none" fill-rule="evenodd">
        <g id="icons" transform="translate(-768.000000, -496.000000)" fill="#282828">
            <path d="M778.666667,501.333333 L777.904762,501.333333 L777.904762,499.809524 C777.904762,497.67619 776.228571,496 774.095238,496 C771.961905,496 770.285714,497.67619 770.285714,499.809524 L770.285714,501.333333 L769.52381,501.333333 C768.685714,501.333333 768,502.019048 768,502.857143 L768,510.47619 C768,511.314286 768.685714,512 769.52381,512 L778.666667,512 C779.504762,512 780.190476,511.314286 780.190476,510.47619 L780.190476,502.857143 C780.190476,502.019048 779.504762,501.333333 778.666667,501.333333 L778.666667,501.333333 Z M774.095238,497.447619 C775.390476,497.447619 776.457143,498.514286 776.457143,499.809524 L776.457143,501.333333 L771.809524,501.333333 L771.809524,499.809524 L771.733333,499.809524 C771.733333,498.514286 772.8,497.447619 774.095238,497.447619 L774.095238,497.447619 Z M778.666667,510.47619 L769.52381,510.47619 L769.52381,502.857143 L778.666667,502.857143 L778.666667,510.47619 L778.666667,510.47619 Z M774.095238,508.190476 C774.933333,508.190476 775.619048,507.504762 775.619048,506.666667 C775.619048,505.828571 774.933333,505.142857 774.095238,505.142857 C773.257143,505.142857 772.571429,505.828571 772.571429,506.666667 C772.571429,507.504762 773.257143,508.190476 774.095238,508.190476 L774.095238,508.190476 Z" id="icon/icon-font/lock-outline"></path>
        </g>
    </g>
</svg>