<?xml version="1.0" encoding="UTF-8"?>
<svg width="10px" height="16px" viewBox="0 0 10 16" version="1.1" xmlns="http://www.w3.org/2000/svg" xmlns:xlink="http://www.w3.org/1999/xlink">
    <!-- Generator: sketchtool 43.1 (39012) - http://www.bohemiancoding.com/sketch -->
    <title>icon/icon-font/mobile-fill</title>
    <desc>Created with sketchtool.</desc>
    <defs></defs>
    <g id="Page-1" stroke="none" stroke-width="1" fill="none" fill-rule="evenodd">
        <g id="icons" transform="translate(-249.000000, -336.000000)" fill="#282828">
            <g id="Fill" transform="translate(182.000000, 304.000000)">
                <path d="M68.4625911,44.1317543 L75.5373777,44.1317543 L75.5373777,34.1456412 L68.4625911,34.1456412 L68.4625911,44.1317543 Z M71.999922,47.0935106 C71.4476899,47.0935106 70.9998128,46.6458831 70.9998128,46.0935262 C70.9998128,45.5412941 71.4476899,45.0936666 71.999922,45.0936666 C72.552154,45.0936666 73.0000312,45.5412941 73.0000312,46.0935262 C73.0000312,46.6458831 72.552154,47.0935106 71.999922,47.0935106 L71.999922,47.0935106 Z M70.2501053,32.8435769 L73.7499883,32.8435769 C73.8879215,32.8435769 74.0000156,32.9555462 74.0000156,33.0936042 C74.0000156,33.231787 73.8879215,33.3436315 73.7499883,33.3436315 L70.2501053,33.3436315 C70.1119225,33.3436315 70.000078,33.231787 70.000078,33.0936042 C70.000078,32.9555462 70.1119225,32.8435769 70.2501053,32.8435769 L70.2501053,32.8435769 Z M75.5000546,32 L68.4999142,32 C67.6750612,32 67,32.6750612 67,33.4999142 L67,46.499961 C67,47.3249388 67.6750612,48 68.4999142,48 L75.5000546,48 C76.3249076,48 76.9999688,47.3249388 76.9999688,46.499961 L76.9999688,33.4999142 C76.9999688,32.6750612 76.3249076,32 75.5000546,32 L75.5000546,32 Z" id="icon/icon-font/mobile-fill"></path>
            </g>
        </g>
    </g>
</svg>