<?xml version="1.0" encoding="UTF-8"?>
<svg width="16px" height="16px" viewBox="0 0 16 16" version="1.1" xmlns="http://www.w3.org/2000/svg" xmlns:xlink="http://www.w3.org/1999/xlink">
    <!-- Generator: sketchtool 43.1 (39012) - http://www.bohemiancoding.com/sketch -->
    <title>icon/icon-font/more-fill</title>
    <desc>Created with sketchtool.</desc>
    <defs></defs>
    <g id="Page-1" stroke="none" stroke-width="1" fill="none" fill-rule="evenodd">
        <g id="icons" transform="translate(-182.000000, -400.000000)" fill="#282828">
            <g id="Fill" transform="translate(182.000000, 304.000000)">
                <path d="M8.61656229,103.375 L8.61656229,99.6756757 C8.61656229,99.3025103 8.33674025,99 7.99156229,99 C7.64638432,99 7.36656229,99.3025103 7.36656229,99.6756757 L7.36656229,103.375 L3.66723796,103.375 C3.29407259,103.375 2.99156229,103.654822 2.99156229,104 C2.99156229,104.345178 3.29407259,104.625 3.66723796,104.625 L7.36656229,104.625 L7.36656229,108.324324 C7.36656229,108.69749 7.64638432,109 7.99156229,109 C8.33674025,109 8.61656229,108.69749 8.61656229,108.324324 L8.61656229,104.625 L12.332762,104.625 C12.7059274,104.625 13.0084377,104.345178 13.0084377,104 C13.0084377,103.654822 12.7059274,103.375 12.332762,103.375 L8.61656229,103.375 Z M8,112 C3.581722,112 0,108.418278 0,104 C0,99.581722 3.581722,96 8,96 C12.418278,96 16,99.581722 16,104 C16,108.418278 12.418278,112 8,112 Z" id="icon/icon-font/more-fill"></path>
            </g>
        </g>
    </g>
</svg>