<?xml version="1.0" encoding="UTF-8"?>
<svg width="16px" height="16px" viewBox="0 0 16 16" version="1.1" xmlns="http://www.w3.org/2000/svg" xmlns:xlink="http://www.w3.org/1999/xlink">
    <!-- Generator: sketchtool 43.1 (39012) - http://www.bohemiancoding.com/sketch -->
    <title>icon/icon-font/print-fill</title>
    <desc>Created with sketchtool.</desc>
    <defs></defs>
    <g id="Page-1" stroke="none" stroke-width="1" fill="none" fill-rule="evenodd">
        <g id="icons" transform="translate(-214.000000, -368.000000)" fill="#282828">
            <g id="Fill" transform="translate(182.000000, 304.000000)">
                <path d="M45.6,69.1948052 L34.4,69.1948052 C33.04,69.1948052 32,70.2753247 32,71.6883117 L32,76.6753247 L35.2,76.6753247 L35.2,80 L44.8,80 L44.8,76.6753247 L48,76.6753247 L48,71.6883117 C48,70.2753247 46.96,69.1948052 45.6,69.1948052 L45.6,69.1948052 Z M43.2,77.2987013 L36.8,77.2987013 L36.8,73.1428571 L43.2,73.1428571 L43.2,77.2987013 L43.2,77.2987013 Z M45.6,71.4805195 C45.12,71.4805195 44.8,71.1480519 44.8,70.6493506 C44.8,70.1506494 45.12,69.8181818 45.6,69.8181818 C46.08,69.8181818 46.4,70.1506494 46.4,70.6493506 C46.4,71.1480519 46.08,71.4805195 45.6,71.4805195 L45.6,71.4805195 Z M36.6721924,64 C35.748666,64 35,64.7378532 35,65.6623377 L35,65.6623377 C35,66.5804214 35.7532959,67.3246753 36.6721924,67.3246753 L42.9278076,67.3246753 C43.851334,67.3246753 44.6,66.5868221 44.6,65.6623377 L44.6,65.6623377 C44.6,64.7442539 43.8467041,64 42.9278076,64 L36.6721924,64 Z" id="icon/icon-font/print-fill"></path>
            </g>
        </g>
    </g>
</svg>