<?xml version="1.0" encoding="UTF-8"?>
<svg width="16px" height="16px" viewBox="0 0 16 16" version="1.1" xmlns="http://www.w3.org/2000/svg" xmlns:xlink="http://www.w3.org/1999/xlink">
    <!-- Generator: sketchtool 43.1 (39012) - http://www.bohemiancoding.com/sketch -->
    <title>icon/icon-font/search-outline</title>
    <desc>Created with sketchtool.</desc>
    <defs></defs>
    <g id="Page-1" stroke="none" stroke-width="1" fill="none" fill-rule="evenodd">
        <g id="icons" transform="translate(-798.000000, -336.000000)" fill="#282828">
            <path d="M808.955258,346.299815 L808.674354,346.018911 C809.610701,344.98893 810.172509,343.584409 810.172509,342.086254 C810.172509,338.715406 807.457103,336 804.086254,336 C800.715406,336 798,338.715406 798,342.086254 C798,345.457103 800.715406,348.172509 804.086254,348.172509 C805.584409,348.172509 806.98893,347.610701 808.018911,346.674354 L808.299815,346.955258 L808.299815,347.704336 L812.270495,351.675015 C812.663199,352.06772 813.293258,352.074361 813.68381,351.68381 L813.68381,351.68381 C814.071657,351.295962 814.064275,350.659755 813.675015,350.270495 L809.704336,346.299815 L808.955258,346.299815 Z M804.086254,346.299815 C801.745387,346.299815 799.872694,344.427122 799.872694,342.086254 C799.872694,339.745387 801.745387,337.872694 804.086254,337.872694 C806.427122,337.872694 808.299815,339.745387 808.299815,342.086254 C808.299815,344.427122 806.427122,346.299815 804.086254,346.299815 L804.086254,346.299815 Z" id="icon/icon-font/search-outline"></path>
        </g>
    </g>
</svg>