<?xml version="1.0" encoding="UTF-8"?>
<svg width="16px" height="16px" viewBox="0 0 16 16" version="1.1" xmlns="http://www.w3.org/2000/svg" xmlns:xlink="http://www.w3.org/1999/xlink">
    <!-- Generator: sketchtool 43.1 (39012) - http://www.bohemiancoding.com/sketch -->
    <title>icon/icon-font/select-outline</title>
    <desc>Created with sketchtool.</desc>
    <defs></defs>
    <g id="Page-1" stroke="none" stroke-width="1" fill="none" fill-rule="evenodd">
        <g id="icons" transform="translate(-798.000000, -464.000000)" fill-rule="nonzero" fill="#282828">
            <path d="M812.903231,466.385672 C813.226095,466.87247 813.172024,467.540389 812.745697,467.966717 L806.16559,474.546824 C805.675615,475.036799 804.879837,475.034518 804.388013,474.542693 L801.371722,471.526403 C800.938718,471.093398 800.883066,470.429517 801.209696,469.940866 C801.232556,469.906667 801.34991,469.789454 801.384322,469.766517 C801.871336,469.441902 802.536141,469.494825 802.965827,469.924512 L805.278867,472.237551 L811.147451,466.368967 C811.578732,465.937686 812.241028,465.883893 812.729176,466.210753 C812.763201,466.233536 812.796381,466.258169 812.828577,466.284652 C812.860269,466.310721 812.891009,466.338582 812.920665,466.368238 L812.746177,466.193751 C812.775404,466.222977 812.80287,466.253322 812.828577,466.284652 C812.855372,466.317306 812.880256,466.35103 812.903231,466.385672 Z M811.791246,472.111396 C811.791246,471.502461 812.232931,470.991422 812.827054,470.907495 L812.963549,470.907617 C813.554664,470.992201 814,471.506101 814,472.111396 L814,478.03367 C814,479.115705 813.115705,480 812.03367,480 L799.96633,480 C798.884295,480 798,479.115705 798,478.03367 L798,465.96633 C798,464.884295 798.884295,464 799.96633,464 L807.613844,464 C808.217706,464 808.731175,464.444594 808.816147,465.035321 L808.816144,465.173403 C808.731186,465.763877 808.218193,466.208754 807.613844,466.208754 L800.208754,466.208754 L800.208754,477.791246 L811.791246,477.791246 L811.791246,472.111396 Z" id="icon/icon-font/select-outline"></path>
        </g>
    </g>
</svg>