<?xml version="1.0" encoding="UTF-8"?>
<svg width="16px" height="16px" viewBox="0 0 16 16" version="1.1" xmlns="http://www.w3.org/2000/svg" xmlns:xlink="http://www.w3.org/1999/xlink">
    <!-- Generator: sketchtool 43.1 (39012) - http://www.bohemiancoding.com/sketch -->
    <title>icon/icon-font/star-outline</title>
    <desc>Created with sketchtool.</desc>
    <defs></defs>
    <g id="Page-1" stroke="none" stroke-width="1" fill="none" fill-rule="evenodd">
        <g id="icons" transform="translate(-766.000000, -304.000000)" fill="#282828">
            <path d="M776.497103,309.30927 L774.783183,305.265784 C774.35059,304.245212 773.65268,304.237047 773.216628,305.265784 L771.502707,309.30927 L767.097593,309.687236 C765.999829,309.781426 765.784217,310.442093 766.617742,311.16438 L769.959405,314.06008 L768.957825,318.365955 C768.708229,319.438988 769.269811,319.848029 770.214116,319.27839 L773.999905,316.994665 L777.785694,319.27839 C778.72912,319.847499 779.291813,319.439988 779.041985,318.365955 L778.040405,314.06008 L781.382068,311.16438 C782.214817,310.442766 782.001004,309.781514 780.902218,309.687236 L776.497103,309.30927 Z M773.999905,315.326903 L770.654602,317.34493 L771.540045,313.539126 L768.585902,310.980588 L772.479717,310.646324 L773.999905,307.058325 L775.520093,310.646324 L779.413908,310.980588 L776.460654,313.539126 L777.346097,317.34493 L773.999905,315.326903 L773.999905,315.326903 Z" id="icon/icon-font/star-outline"></path>
        </g>
    </g>
</svg>