<?xml version="1.0" encoding="UTF-8"?>
<svg width="11px" height="16px" viewBox="0 0 11 16" version="1.1" xmlns="http://www.w3.org/2000/svg" xmlns:xlink="http://www.w3.org/1999/xlink">
    <!-- Generator: sketchtool 43.1 (39012) - http://www.bohemiancoding.com/sketch -->
    <title>icon/icon-font/ticket-outline</title>
    <desc>Created with sketchtool.</desc>
    <defs></defs>
    <g id="Page-1" stroke="none" stroke-width="1" fill="none" fill-rule="evenodd">
        <g id="icons" transform="translate(-801.000000, -368.000000)" fill="#282828">
            <path d="M811.626045,377.881943 C811.969822,378.2367 812.395468,378.485479 812.861179,378.609806 L812.861179,379.85682 L804.473792,379.85682 L804.473792,372.143055 L812.861054,372.143055 L812.861054,373.390319 C812.395344,373.514646 811.969698,373.763425 811.626045,374.118181 C811.135202,374.624851 810.864834,375.293296 810.864834,376.000062 C810.864709,376.706829 811.135202,377.375149 811.626045,377.881943 L811.626045,377.881943 Z M803.21029,379.85682 L799.388058,379.85682 L799.388058,378.626407 C800.569068,378.34043 801.448978,377.271418 801.448978,376.000062 C801.448978,374.728582 800.569068,373.65957 799.388058,373.373717 L799.388058,372.143055 L803.21029,372.143055 L803.21029,379.85682 Z M813.512277,374.567431 C812.736259,374.591523 812.128211,375.220772 812.128211,376.000062 C812.128211,376.779353 812.736259,377.408477 813.512277,377.432569 C813.853441,377.443054 814.124556,377.723539 814.124556,378.066062 L814.124556,380.490688 C814.124556,380.840826 813.841746,381.124556 813.492867,381.124556 L798.756245,381.124556 C798.407366,381.124556 798.124556,380.840701 798.124556,380.490688 L798.124556,378.067685 C798.124556,377.717672 798.407366,377.433817 798.756245,377.433817 C799.544331,377.433817 800.185476,376.790712 800.185476,376.000062 C800.185476,375.209413 799.544331,374.566308 798.756245,374.566308 C798.407366,374.566308 798.124556,374.282328 798.124556,373.932315 L798.124556,371.509312 C798.124556,371.159299 798.407366,370.875569 798.756245,370.875444 L813.492867,370.875444 C813.841746,370.875444 814.124556,371.159299 814.124556,371.509312 L814.124556,373.933938 C814.124556,374.276336 813.853441,374.556821 813.512277,374.567431 Z M809.756921,374.202739 L805.81823,374.202739 C805.469352,374.202739 805.186541,374.486469 805.186541,374.836482 C805.186541,375.186619 805.469352,375.47035 805.81823,375.47035 L809.756921,375.47035 C810.105799,375.47035 810.38861,375.186619 810.38861,374.836482 C810.38861,374.486469 810.105799,374.202739 809.756921,374.202739 Z M805.81823,376.5297 C805.469352,376.5297 805.186541,376.81343 805.186541,377.163443 C805.186541,377.513581 805.469352,377.797311 805.81823,377.797311 L809.756921,377.797311 C810.105799,377.797311 810.38861,377.513581 810.38861,377.163443 C810.38861,376.81343 810.105799,376.5297 809.756921,376.5297 L805.81823,376.5297 Z" id="icon/icon-font/ticket-outline" transform="translate(806.124556, 376.000000) rotate(90.000000) translate(-806.124556, -376.000000) "></path>
        </g>
    </g>
</svg>