<?xml version="1.0" encoding="UTF-8"?>
<svg width="16px" height="16px" viewBox="0 0 16 16" version="1.1" xmlns="http://www.w3.org/2000/svg" xmlns:xlink="http://www.w3.org/1999/xlink">
    <!-- Generator: sketchtool 43.1 (39012) - http://www.bohemiancoding.com/sketch -->
    <title>icon/icon-font/tool-ouline</title>
    <desc>Created with sketchtool.</desc>
    <defs></defs>
    <g id="Page-1" stroke="none" stroke-width="1" fill="none" fill-rule="evenodd">
        <g id="icons" transform="translate(-798.000000, -304.000000)" fill-rule="nonzero" fill="#282828">
            <path d="M813.457105,313.135112 C814.056632,313.480927 814.124008,314.197197 813.832854,314.768713 L812.4077,317.226409 C812.114465,317.80499 811.368648,318.050251 810.856063,317.794051 L809.488277,317.254296 C809.334713,317.349601 809.162729,317.444538 808.945385,317.556485 L808.73256,318.921234 C808.675914,319.562516 808.057901,320 807.486908,320 L804.589188,320 C803.954263,320 803.392988,319.549949 803.342947,318.917462 L803.130711,317.556485 C802.913188,317.444445 802.7411,317.349445 802.587441,317.254061 L801.17154,317.811575 C800.665741,317.977907 800.167693,317.85507 799.83698,317.528806 L799.751974,317.444943 L799.692102,317.341578 L798.219536,314.796481 C797.970388,314.304888 798.041218,313.745869 798.460563,313.332166 L798.53006,313.270437 L799.649508,312.376408 C799.645858,312.27867 799.64473,312.167661 799.64473,312.035734 C799.64473,311.92511 799.650423,311.83008 799.662509,311.724189 L798.550654,310.888458 L798.460563,310.810771 C798.039909,310.395776 797.803136,309.752933 798.212452,309.230843 L799.679531,306.697994 L799.764537,306.614131 C800.14667,306.237138 800.624508,306.080002 801.231671,306.282106 L802.531736,306.816513 C802.631505,306.749832 802.725361,306.68776 802.777497,306.655029 C802.874318,306.594244 802.967567,306.539362 803.05942,306.489825 L803.270788,305.082284 C803.32548,304.439085 803.944709,304 804.516745,304 L807.414465,304 C808.060066,304 808.680536,304.542893 808.604975,305.261178 L808.800499,306.514984 C809.018022,306.627023 809.19011,306.722024 809.343769,306.817407 L810.75967,306.259893 C811.265469,306.093562 811.763517,306.216399 812.09423,306.542663 L812.179236,306.626525 L812.239108,306.729891 L813.711674,309.274987 C813.960822,309.76658 813.889992,310.3256 813.470647,310.739303 L813.40115,310.801032 L812.281702,311.69506 C812.285351,311.792798 812.286479,311.903808 812.286479,312.035734 C812.286479,312.137299 812.281681,312.225719 812.271542,312.321467 L813.457105,313.135112 Z M811.57374,316.16966 C811.540805,316.153415 811.507592,316.14034 811.474406,316.13029 L811.57374,316.16966 Z M805.114622,318.825237 C805.114622,318.78532 805.111544,318.747057 805.105734,318.710549 L805.114622,318.825237 Z M810.438738,313.218836 L810.438738,312.750419 C810.438738,312.597785 810.447631,312.526135 810.485589,312.282729 C810.504706,312.160137 810.511181,312.099455 810.511181,312.035734 C810.511181,311.745068 810.505276,311.66578 810.485048,311.604415 L810.285914,311.015049 L811.91517,309.713871 L810.971905,308.085364 L809.07657,308.833299 L808.676087,308.517223 C808.440127,308.330994 808.196945,308.195392 807.60177,307.901808 L807.188133,307.697772 L806.888721,305.777778 L804.961606,305.777778 L804.661223,307.778085 L804.141703,307.948929 C804.021271,307.988533 803.891055,308.054193 803.720488,308.161275 C803.610377,308.230403 803.177723,308.524444 803.120517,308.562068 L802.729224,308.81942 L802.296151,308.641401 L800.932135,308.078671 L799.972949,309.734664 L801.492472,310.876821 L801.492472,311.32105 C801.492472,311.473684 801.483579,311.545333 801.445621,311.78874 C801.426504,311.911331 801.420029,311.972014 801.420029,312.035734 C801.420029,312.3264 801.425934,312.405688 801.446162,312.467054 L801.645296,313.056419 L800.01604,314.357598 L800.959305,315.986105 L802.85464,315.23817 L803.255123,315.554246 C803.491083,315.740475 803.734264,315.876076 804.32944,316.16966 L804.743077,316.373697 L805.031344,318.222222 L807.044752,318.222222 L807.333019,316.373697 L807.746656,316.16966 C808.341831,315.876076 808.585013,315.740475 808.820973,315.554246 L809.221456,315.23817 L809.695864,315.42538 L811.082185,315.974837 L812.042199,314.319281 L810.438738,313.218836 Z M805.965605,313.648241 C806.854731,313.648241 807.613461,312.899718 807.613461,312.035734 C807.613461,311.17175 806.854731,310.423227 805.965605,310.423227 C805.076479,310.423227 804.317749,311.17175 804.317749,312.035734 C804.317749,312.899718 805.076479,313.648241 805.965605,313.648241 Z M805.965605,315.426019 C804.101897,315.426019 802.542451,313.887552 802.542451,312.035734 C802.542451,310.183917 804.101897,308.645449 805.965605,308.645449 C807.829313,308.645449 809.388759,310.183917 809.388759,312.035734 C809.388759,313.887552 807.829313,315.426019 805.965605,315.426019 Z" id="icon/icon-font/tool-ouline"></path>
        </g>
    </g>
</svg>