<?xml version="1.0" encoding="UTF-8"?>
<svg width="16px" height="16px" viewBox="0 0 16 16" version="1.1" xmlns="http://www.w3.org/2000/svg" xmlns:xlink="http://www.w3.org/1999/xlink">
    <!-- Generator: sketchtool 43.1 (39012) - http://www.bohemiancoding.com/sketch -->
    <title>icon/icon-font/tool-fill</title>
    <desc>Created with sketchtool.</desc>
    <defs></defs>
    <g id="Page-1" stroke="none" stroke-width="1" fill="none" fill-rule="evenodd">
        <g id="icons" transform="translate(-246.000000, -304.000000)" fill="#282828">
            <g id="Fill" transform="translate(182.000000, 304.000000)">
                <path d="M77.9877003,8.84422111 C77.9877003,8.60301508 78.0693125,8.36180905 78.0693125,8.04020101 C78.0693125,7.71859296 78.0693125,7.47738693 77.9877003,7.2361809 L79.7015561,5.86934673 C79.8647805,5.70854271 79.8647805,5.54773869 79.7831683,5.38693467 L78.1509246,2.57286432 C78.0693125,2.49246231 77.9060881,2.4120603 77.6612515,2.49246231 L75.620947,3.29648241 C75.212886,2.97487437 74.7232129,2.73366834 74.2335398,2.49246231 L73.9070911,0.40201005 C73.9887033,0.16080402 73.7438667,0 73.5806424,0 L70.316155,0 C70.1529306,0 69.9080941,0.16080402 69.9080941,0.32160804 L69.5816454,2.49246231 C69.0919722,2.65326633 68.6839113,2.97487437 68.1942382,3.29648241 L66.2355458,2.49246231 C65.9907093,2.4120603 65.8274849,2.49246231 65.6642605,2.65326633 L64.0320169,5.46733668 C63.9504047,5.54773869 64.0320169,5.78894472 64.1952412,5.94974874 L65.9090971,7.2361809 C65.9090971,7.47738693 65.8274849,7.71859296 65.8274849,8.04020101 C65.8274849,8.36180905 65.8274849,8.60301508 65.9090971,8.84422111 L64.1952412,10.2110553 C64.0320169,10.3718593 64.0320169,10.5326633 64.113629,10.6934673 L65.7458727,13.5075377 C65.8274849,13.5879397 65.9907093,13.6683417 66.2355458,13.5879397 L68.2758504,12.7839196 C68.6839113,13.1055276 69.1735844,13.3467337 69.6632575,13.5879397 L69.9897063,15.678392 C69.9897063,15.839196 70.1529306,16 70.3977672,16 L73.6622545,16 C73.8254789,16 74.0703155,15.839196 74.0703155,15.678392 L74.3967642,13.5879397 C74.8864373,13.3467337 75.3761104,13.1055276 75.7841713,12.7839196 L77.8244759,13.5879397 C77.9877003,13.6683417 78.2325368,13.5879397 78.314149,13.4271357 L79.9463927,10.6130653 C80.0280049,10.4522613 80.0280049,10.2110553 79.8647805,10.1306533 L77.9877003,8.84422111 L77.9877003,8.84422111 Z M71.9483987,10.8542714 C70.3977672,10.8542714 69.0919722,9.5678392 69.0919722,8.04020101 C69.0919722,6.51256281 70.3977672,5.22613065 71.9483987,5.22613065 C73.4990302,5.22613065 74.8048251,6.51256281 74.8048251,8.04020101 C74.8048251,9.5678392 73.4990302,10.8542714 71.9483987,10.8542714 L71.9483987,10.8542714 Z" id="icon/icon-font/tool-fill"></path>
            </g>
        </g>
    </g>
</svg>