<?xml version="1.0" encoding="UTF-8"?>
<svg width="13px" height="16px" viewBox="0 0 13 16" version="1.1" xmlns="http://www.w3.org/2000/svg" xmlns:xlink="http://www.w3.org/1999/xlink">
    <!-- Generator: sketchtool 43.1 (39012) - http://www.bohemiancoding.com/sketch -->
    <title>icon/icon-font/unlock-outline</title>
    <desc>Created with sketchtool.</desc>
    <defs></defs>
    <g id="Page-1" stroke="none" stroke-width="1" fill="none" fill-rule="evenodd">
        <g id="icons" transform="translate(-736.000000, -496.000000)" fill="#282828">
            <path d="M742.095238,508.190476 C742.933333,508.190476 743.619048,507.504762 743.619048,506.666667 C743.619048,505.828571 742.933333,505.142857 742.095238,505.142857 C741.257143,505.142857 740.571429,505.828571 740.571429,506.666667 C740.571429,507.504762 741.257143,508.190476 742.095238,508.190476 L742.095238,508.190476 Z M745.904762,501.333333 L745.904762,499.809524 C745.904762,497.67619 744.228571,496 742.095238,496 C739.961905,496 738.285714,497.67619 738.285714,499.809524 L739.733333,499.809524 C739.733333,498.514286 740.8,497.447619 742.095238,497.447619 C743.390476,497.447619 744.457143,498.514286 744.457143,499.809524 L744.457143,501.333333 L737.52381,501.333333 C736.685714,501.333333 736,502.019048 736,502.857143 L736,510.47619 C736,511.314286 736.685714,512 737.52381,512 L746.666667,512 C747.504762,512 748.190476,511.314286 748.190476,510.47619 L748.190476,502.857143 C748.190476,502.019048 747.504762,501.333333 746.666667,501.333333 L745.904762,501.333333 Z M746.666667,510.47619 L737.52381,510.47619 L737.52381,502.857143 L746.666667,502.857143 L746.666667,510.47619 L746.666667,510.47619 Z" id="icon/icon-font/unlock-outline"></path>
        </g>
    </g>
</svg>