<?xml version="1.0" encoding="UTF-8"?>
<svg width="14px" height="16px" viewBox="0 0 14 16" version="1.1" xmlns="http://www.w3.org/2000/svg" xmlns:xlink="http://www.w3.org/1999/xlink">
    <!-- Generator: sketchtool 43.1 (39012) - http://www.bohemiancoding.com/sketch -->
    <title>icon/icon-font/upload-fill</title>
    <desc>Created with sketchtool.</desc>
    <defs></defs>
    <g id="Page-1" stroke="none" stroke-width="1" fill="none" fill-rule="evenodd">
        <g id="icons" transform="translate(-215.000000, -432.000000)" fill="#282828">
            <g id="Fill" transform="translate(182.000000, 304.000000)">
                <path d="M42.8235294,133.647059 L42.8235294,129.009581 C42.8235294,128.452005 42.3804142,128 41.8139485,128 L38.1860515,128 C37.6284754,128 37.1764706,128.443115 37.1764706,129.009581 L37.1764706,133.647059 L34.4206368,133.647059 C33.8634521,133.647059 33.729529,133.964823 34.1168213,134.352115 L39.2949434,139.530238 C39.6843354,139.91963 40.3177643,139.91753 40.7050566,139.530238 L45.8831787,134.352115 C46.2725707,133.962723 46.1415903,133.647059 45.5793632,133.647059 L42.8235294,133.647059 Z M33.4117647,143.058824 C33.4117647,143.578621 33.8352459,144 34.359384,144 L45.640616,144 C46.1639717,144 46.5882353,143.582245 46.5882353,143.058824 L46.5882353,143.058824 C46.5882353,142.539026 46.1647541,142.117647 45.640616,142.117647 L34.359384,142.117647 C33.8360283,142.117647 33.4117647,142.535402 33.4117647,143.058824 L33.4117647,143.058824 Z" id="icon/icon-font/upload-fill" transform="translate(40.000000, 136.000000) scale(1, -1) translate(-40.000000, -136.000000) "></path>
            </g>
        </g>
    </g>
</svg>