<?xml version="1.0" encoding="UTF-8"?>
<svg width="16px" height="12px" viewBox="0 0 16 12" version="1.1" xmlns="http://www.w3.org/2000/svg" xmlns:xlink="http://www.w3.org/1999/xlink">
    <!-- Generator: sketchtool 43.1 (39012) - http://www.bohemiancoding.com/sketch -->
    <title>icon/icon-font/view-fill</title>
    <desc>Created with sketchtool.</desc>
    <defs></defs>
    <g id="Page-1" stroke="none" stroke-width="1" fill="none" fill-rule="evenodd">
        <g id="icons" transform="translate(-246.000000, -434.000000)" fill="#282828">
            <g id="Fill" transform="translate(182.000000, 304.000000)">
                <path d="M72,130.545455 C68.3636364,130.545455 65.2363636,132.8 64,136 C65.2363636,139.2 68.3636364,141.454545 72,141.454545 C75.6363636,141.454545 78.7636364,139.2 80,136 C78.7636364,132.8 75.6363636,130.545455 72,130.545455 L72,130.545455 Z M72,139.636364 C69.9636364,139.636364 68.3636364,138.036364 68.3636364,136 C68.3636364,133.963636 69.9636364,132.363636 72,132.363636 C74.0363636,132.363636 75.6363636,133.963636 75.6363636,136 C75.6363636,138.036364 74.0363636,139.636364 72,139.636364 L72,139.636364 Z M72,133.818182 C70.7636364,133.818182 69.8181818,134.763636 69.8181818,136 C69.8181818,137.236364 70.7636364,138.181818 72,138.181818 C73.2363636,138.181818 74.1818182,137.236364 74.1818182,136 C74.1818182,134.763636 73.2363636,133.818182 72,133.818182 L72,133.818182 Z" id="icon/icon-font/view-fill"></path>
            </g>
        </g>
    </g>
</svg>